<?xml version="1.0" encoding="UTF-8"?>
<svg id="Capa_2" data-name="Capa 2" xmlns="http://www.w3.org/2000/svg" viewBox="0 0 109.78 130.06">
  <defs>
    <style>
      .cls-1 {
        letter-spacing: 0em;
      }

      .cls-2 {
        letter-spacing: -.01em;
      }

      .cls-3 {
        letter-spacing: 0em;
      }

      .cls-4 {
        letter-spacing: -.01em;
      }

      .cls-5 {
        fill: #73b735;
      }

      .cls-6 {
        letter-spacing: 0em;
      }

      .cls-7 {
        letter-spacing: 0em;
      }

      .cls-8 {
        letter-spacing: -.01em;
      }

      .cls-9 {
        letter-spacing: -.02em;
      }

      .cls-10 {
        letter-spacing: -.01em;
      }

      .cls-11 {
        letter-spacing: -.05em;
      }

      .cls-12 {
        letter-spacing: -.02em;
      }

      .cls-13 {
        fill: #17253f;
        font-family: MontserratRoman-Regular, Montserrat;
        font-size: 14px;
        font-variation-settings: 'wght' 400;
      }
    </style>
  </defs>
  <g id="Capa_1-2" data-name="Capa 1">
    <g>
      <path class="cls-5" d="m30.2,87.92c.33-.86.97-1.14,1.86-1.14,15.29.01,30.59,0,45.88,0,1.39,0,1.88.5,1.88,1.9,0,3.91,0,7.82,0,11.72,0,1.2-.55,1.75-1.74,1.75-15.31,0-30.62,0-45.93.01-.9,0-1.56-.24-1.96-1.08v-13.18Zm2.92,5.08h43.77v-3.26h-43.77v3.26Zm0,6.23h43.76v-3.25h-43.76v3.25Z"/>
      <path class="cls-5" d="m30.2,76.58c1.59-4.06,3.18-8.13,4.77-12.19.24-.6.7-.93,1.34-.93.67,0,1.13.32,1.38.94,1.47,3.62,2.98,7.21,4.38,10.86,1.27,3.31-.69,7.07-4.07,8-3.51.96-7.04-1.24-7.71-4.81-.02-.11-.07-.21-.1-.31,0-.52,0-1.03,0-1.55Zm6.15-7.78c-.08.14-.12.21-.15.28-.95,2.35-1.91,4.69-2.84,7.04-.13.34-.22.71-.24,1.08-.07,1.29.67,2.51,1.83,3.05,1.17.55,2.56.35,3.52-.51.97-.87,1.35-2.25.86-3.5-.96-2.46-1.97-4.91-2.99-7.44Z"/>
      <path class="cls-5" d="m44.45,52.54c.84.31,1.15.94,1.13,1.81-.03,1.6,0,3.2,0,4.8,0,.17,0,.34,0,.52.06.04.11.08.17.12.14-.19.26-.39.43-.55.63-.61,1.5-.62,2.08-.04.56.56.59,1.44,0,2.05-1.03,1.07-2.08,2.12-3.15,3.15-.56.54-1.42.54-1.98,0-1.08-1.05-2.14-2.11-3.19-3.19-.56-.58-.51-1.47.04-2.01.55-.55,1.41-.57,2.01-.02.19.17.33.39.49.59.05-.02.1-.05.15-.07,0-.16.02-.32.02-.49,0-1.6.03-3.2,0-4.8-.02-.89.25-1.54,1.12-1.87h.68Z"/>
      <path class="cls-5" d="m66.25,52.54c.84.32,1.14.94,1.12,1.82-.03,1.6,0,3.2,0,4.8v.52c.06.04.12.08.17.12.15-.2.28-.42.46-.59.61-.58,1.48-.58,2.05-.02.56.55.59,1.45,0,2.05-1.03,1.07-2.08,2.12-3.15,3.15-.56.54-1.42.54-1.98,0-1.08-1.05-2.14-2.11-3.19-3.19-.56-.58-.52-1.46.03-2.01.55-.55,1.41-.57,2.01-.03.19.17.33.39.49.59.05-.02.1-.05.15-.07,0-.16.03-.33.03-.49,0-1.6.03-3.2,0-4.8-.02-.89.26-1.54,1.13-1.86h.68Z"/>
      <path class="cls-5" d="m63.26,75.2c0,4.3-3.33,7.94-7.56,8.25-4.38.33-8.21-2.72-8.85-7.03-.23-1.54-.02-3.02.57-4.46,2.06-5.06,4.11-10.13,6.15-15.2.27-.66.69-1.09,1.43-1.11.65-.02,1.14.35,1.44,1.09,2.07,5.1,4.13,10.19,6.19,15.29.41,1.01.65,2.06.63,3.16Zm-8.25-14.22c-.67,1.64-1.28,3.15-1.89,4.65-1.03,2.56-2.11,5.1-3.09,7.67-.78,2.03-.41,3.93,1.07,5.53,1.48,1.61,3.35,2.09,5.43,1.5,3.06-.86,4.6-4.21,3.38-7.26-.99-2.48-2.01-4.96-3.02-7.44-.61-1.51-1.22-3.01-1.89-4.66Z"/>
      <path class="cls-5" d="m67.45,77.32c.19-.78.3-1.59.59-2.33,1.38-3.51,2.82-6.99,4.23-10.49.26-.65.69-1.05,1.41-1.05.71,0,1.15.39,1.41,1.04,1.41,3.5,2.85,6.98,4.24,10.49,1.7,4.29-1.42,8.66-6.03,8.48-3.14-.12-5.74-2.89-5.86-6.14Zm6.21-8.49c-.4.98-.78,1.92-1.16,2.86-.62,1.52-1.26,3.04-1.83,4.58-.44,1.19-.2,2.31.65,3.24.84.92,1.91,1.23,3.12.96,1.87-.42,2.95-2.43,2.24-4.27-.92-2.39-1.91-4.76-2.88-7.13-.03-.07-.08-.13-.15-.23Z"/>
    </g>
    <text class="cls-13" transform="translate(14.48 126.43)"><tspan x="0" y="0">Abso</tspan><tspan class="cls-4" x="35.14" y="0">r</tspan><tspan class="cls-7" x="40.57" y="0">c</tspan><tspan x="48.34" y="0">ión</tspan></text>
    <text class="cls-13" transform="translate(12.68 11.9)"><tspan x="0" y="0">NM</tspan><tspan class="cls-9" x="24.75" y="0">X</tspan><tspan class="cls-1" x="33.7" y="0">-</tspan><tspan x="39.16" y="0">C</tspan><tspan class="cls-1" x="49.22" y="0">-</tspan><tspan class="cls-6" x="54.68" y="0">0</tspan><tspan class="cls-10" x="63.81" y="0">3</tspan><tspan class="cls-11" x="71.52" y="0">7</tspan><tspan x="79.07" y="0">-</tspan><tspan x="-7.21" y="16.8">ONN</tspan><tspan class="cls-2" x="27.3" y="16.8">C</tspan><tspan x="37.16" y="16.8">C</tspan><tspan class="cls-12" x="47.22" y="16.8">E</tspan><tspan class="cls-8" x="56.31" y="16.8">-</tspan><tspan class="cls-3" x="61.49" y="16.8">2</tspan><tspan x="69.41" y="16.8">013</tspan></text>
  </g>
</svg>