<?xml version="1.0" encoding="UTF-8"?>
<svg id="Capa_2" data-name="Capa 2" xmlns="http://www.w3.org/2000/svg" viewBox="0 0 158.34 130.06">
  <defs>
    <style>
      .cls-1 {
        letter-spacing: -.01em;
      }

      .cls-2 {
        letter-spacing: 0em;
      }

      .cls-3 {
        fill: #73b735;
      }

      .cls-4 {
        letter-spacing: 0em;
      }

      .cls-5 {
        letter-spacing: 0em;
      }

      .cls-6 {
        letter-spacing: 0em;
      }

      .cls-7 {
        letter-spacing: -.01em;
      }

      .cls-8 {
        letter-spacing: -.02em;
      }

      .cls-9 {
        letter-spacing: 0em;
      }

      .cls-10 {
        letter-spacing: -.02em;
      }

      .cls-11 {
        letter-spacing: -.02em;
      }

      .cls-12 {
        fill: #17253f;
        font-family: MontserratRoman-Regular, Montserrat;
        font-size: 14px;
        font-variation-settings: 'wght' 400;
      }
    </style>
  </defs>
  <g id="Capa_1-2" data-name="Capa 1">
    <g>
      <path class="cls-3" d="m43.04,70.74c.28-.24.53-.54.85-.71,10.57-5.44,21.15-10.87,31.72-16.31.58-.3,1.06-.3,1.64,0,5.9,3.11,11.8,6.2,17.71,9.28.58.3.8.7.8,1.34-.01,7.07-.02,14.14,0,21.21,0,.66-.24,1.04-.81,1.33-10.61,5.44-21.22,10.88-31.82,16.34-.54.28-.99.27-1.54-.02-5.86-3.09-11.74-6.16-17.61-9.24-.34-.18-.62-.45-.93-.68,0-7.52,0-15.03,0-22.55Zm50.95-5.32c-.23.11-.38.18-.53.26-9.92,5.09-19.84,10.19-29.77,15.27-.36.19-.46.4-.46.79.01,6.28,0,12.56,0,18.84v.58c.24-.11.41-.18.57-.26,9.91-5.09,19.81-10.17,29.72-15.25.35-.18.48-.38.48-.78-.02-6.3-.01-12.59-.01-18.89v-.55Zm-32.53,35.73c0-.21.02-.33.02-.44,0-6.37,0-12.73.01-19.09,0-.39-.19-.53-.47-.68-5.22-2.73-10.44-5.47-15.66-8.2-.16-.08-.33-.16-.54-.26,0,.17-.02.28-.02.39,0,6.38,0,12.76-.01,19.15,0,.37.18.5.45.64,4.36,2.28,8.71,4.56,13.07,6.84,1.03.54,2.06,1.08,3.16,1.66Zm-15.59-30.16c.18.1.3.18.44.25,5.22,2.74,10.44,5.47,15.65,8.21.31.17.55.14.85-.01,9.87-5.08,19.74-10.15,29.62-15.22.15-.07.28-.16.5-.28-.24-.13-.41-.22-.59-.32-5.14-2.7-10.29-5.39-15.43-8.09-.35-.19-.62-.19-.98,0-9.82,5.06-19.65,10.1-29.48,15.15-.18.09-.36.19-.58.32Z"/>
      <path class="cls-3" d="m62.36,64.59c.22.09.46.15.66.27,3.33,1.86,6.67,3.73,10,5.59.36.2.66.44.65.9,0,.47-.3.7-.67.89-3.34,1.71-6.67,3.42-10,5.14-.42.22-.8.22-1.22,0-3.49-1.83-6.97-3.66-10.47-5.48-.36-.19-.63-.44-.63-.86,0-.43.26-.68.62-.87,3.49-1.79,6.97-3.58,10.46-5.37.18-.09.38-.14.6-.21Zm-.91,2.35c-2.67,1.37-5.28,2.72-7.99,4.11,2.71,1.42,5.32,2.78,7.99,4.18v-8.29Zm1.81,8.33c2.59-1.33,5.12-2.63,7.7-3.96-2.59-1.45-5.12-2.86-7.7-4.31v8.27Z"/>
      <path class="cls-3" d="m76.49,57.12c.24.09.49.16.71.28,3.32,1.85,6.63,3.71,9.95,5.57.37.21.69.45.67.95-.02.47-.34.68-.7.87-3.3,1.7-6.61,3.39-9.91,5.1-.47.24-.89.24-1.36,0-3.44-1.81-6.88-3.61-10.33-5.41-.39-.2-.7-.44-.69-.93.01-.46.32-.68.69-.87,3.44-1.77,6.88-3.54,10.32-5.3.2-.1.41-.16.64-.25Zm-.88,2.35c-2.68,1.38-5.31,2.73-8,4.11,2.71,1.42,5.33,2.79,8,4.18v-8.29Zm1.83.08v8.23c2.57-1.32,5.08-2.61,7.67-3.94-2.61-1.46-5.11-2.86-7.67-4.29Z"/>
      <polyline class="cls-3" points="62.69 81.62 62.69 101.57 95.15 85.47 94 64.59 62.17 80.73"/>
    </g>
    <text class="cls-12" transform="translate(0 126.43)"><tspan class="cls-6" x="0" y="0">C</tspan><tspan x="9.95" y="0">abe</tspan><tspan class="cls-5" x="36.16" y="0">c</tspan><tspan x="43.92" y="0">eo </tspan><tspan class="cls-8" x="64.82" y="0">P</tspan><tspan class="cls-6" x="74.55" y="0">r</tspan><tspan x="80.05" y="0">ismáti</tspan><tspan class="cls-4" x="123.21" y="0">c</tspan><tspan x="130.97" y="0">o</tspan></text>
    <text class="cls-12" transform="translate(28.57 11.9)"><tspan x="0" y="0">NM</tspan><tspan class="cls-10" x="24.75" y="0">X</tspan><tspan class="cls-2" x="33.7" y="0">-</tspan><tspan x="39.16" y="0">C</tspan><tspan class="cls-10" x="49.22" y="0">-</tspan><tspan x="54.33" y="0">10</tspan><tspan class="cls-2" x="68.65" y="0">9</tspan><tspan x="77.29" y="0">-</tspan><tspan x="-8.1" y="16.8">ONN</tspan><tspan class="cls-1" x="26.41" y="16.8">C</tspan><tspan x="36.27" y="16.8">C</tspan><tspan class="cls-11" x="46.33" y="16.8">E</tspan><tspan class="cls-7" x="55.42" y="16.8">-</tspan><tspan class="cls-9" x="60.6" y="16.8">2</tspan><tspan x="68.52" y="16.8">013</tspan></text>
  </g>
</svg>