<?xml version="1.0" encoding="UTF-8"?>
<svg id="Capa_2" data-name="Capa 2" xmlns="http://www.w3.org/2000/svg" viewBox="0 0 117.62 130.06">
  <defs>
    <style>
      .cls-1 {
        letter-spacing: -.01em;
      }

      .cls-2 {
        letter-spacing: 0em;
      }

      .cls-3 {
        fill: #73b735;
      }

      .cls-4 {
        letter-spacing: -.01em;
      }

      .cls-5 {
        letter-spacing: -.01em;
      }

      .cls-6 {
        letter-spacing: 0em;
      }

      .cls-7 {
        letter-spacing: -.02em;
      }

      .cls-8 {
        letter-spacing: -.02em;
      }

      .cls-9 {
        fill: #17253f;
        font-family: MontserratRoman-Regular, Montserrat;
        font-size: 14px;
        font-variation-settings: 'wght' 400;
      }
    </style>
  </defs>
  <g id="Capa_1-2" data-name="Capa 1">
    <g>
      <g>
        <path class="cls-3" d="m34,67.19c.28-.24.53-.54.85-.71,10.57-5.44,21.15-10.87,31.72-16.31.58-.3,1.06-.3,1.64,0,5.9,3.11,11.8,6.2,17.71,9.28.58.3.8.7.8,1.34-.01,7.07-.02,14.14,0,21.21,0,.66-.24,1.04-.81,1.33-10.61,5.44-21.22,10.88-31.82,16.34-.54.28-.99.27-1.54-.02-5.86-3.09-11.74-6.16-17.61-9.24-.34-.18-.62-.45-.93-.68,0-7.52,0-15.03,0-22.55Zm50.95-5.32c-.23.11-.38.18-.53.26-9.92,5.09-19.84,10.19-29.77,15.27-.36.19-.46.4-.46.79.01,6.28,0,12.56,0,18.84v.58c.24-.11.41-.18.57-.26,9.91-5.09,19.81-10.17,29.72-15.25.35-.18.48-.38.48-.78-.02-6.3-.01-12.59-.01-18.89v-.55Zm-32.53,35.73c0-.21.02-.33.02-.44,0-6.37,0-12.73.01-19.09,0-.39-.19-.53-.47-.68-5.22-2.73-10.44-5.47-15.66-8.2-.16-.08-.33-.16-.54-.26,0,.17-.02.28-.02.39,0,6.38,0,12.76-.01,19.15,0,.37.18.5.45.64,4.36,2.28,8.71,4.56,13.07,6.84,1.03.54,2.06,1.08,3.16,1.66Zm-15.59-30.16c.18.1.3.18.44.25,5.22,2.74,10.44,5.47,15.65,8.21.31.17.55.14.85-.01,9.87-5.08,19.74-10.15,29.62-15.22.15-.07.28-.16.5-.28-.24-.13-.41-.22-.59-.32-5.14-2.7-10.29-5.39-15.43-8.09-.35-.19-.62-.19-.98,0-9.82,5.06-19.65,10.1-29.48,15.15-.18.09-.36.19-.58.32Z"/>
        <path class="cls-3" d="m53.32,61.03c.22.09.46.15.66.27,3.33,1.86,6.67,3.73,10,5.59.36.2.66.44.65.9,0,.47-.3.7-.67.89-3.34,1.71-6.67,3.42-10,5.14-.42.22-.8.22-1.22,0-3.49-1.83-6.97-3.66-10.47-5.48-.36-.19-.63-.44-.63-.86,0-.43.26-.68.62-.87,3.49-1.79,6.97-3.58,10.46-5.37.18-.09.38-.14.6-.21Zm-.91,2.35c-2.67,1.37-5.28,2.72-7.99,4.11,2.71,1.42,5.32,2.78,7.99,4.18v-8.29Zm1.81,8.33c2.59-1.33,5.12-2.63,7.7-3.96-2.59-1.45-5.12-2.86-7.7-4.31v8.27Z"/>
        <path class="cls-3" d="m67.45,53.56c.24.09.49.16.71.28,3.32,1.85,6.63,3.71,9.95,5.57.37.21.69.45.67.95-.02.47-.34.68-.7.87-3.3,1.7-6.61,3.39-9.91,5.1-.47.24-.89.24-1.36,0-3.44-1.81-6.88-3.61-10.33-5.41-.39-.2-.7-.44-.69-.93.01-.46.32-.68.69-.87,3.44-1.77,6.88-3.54,10.32-5.3.2-.1.41-.16.64-.25Zm-.88,2.35c-2.68,1.38-5.31,2.73-8,4.11,2.71,1.42,5.33,2.79,8,4.18v-8.29Zm1.83.08v8.23c2.57-1.32,5.08-2.61,7.67-3.94-2.61-1.46-5.11-2.86-7.67-4.29Z"/>
      </g>
      <g>
        <path class="cls-3" d="m25.35,62.12c.44-.83.76-.93,1.6-.5,1.5.79,3.01,1.57,4.51,2.36.55.29.71.78.45,1.24-.25.43-.71.54-1.24.29-.17-.08-.34-.18-.51-.27-.23-.12-.47-.24-.77-.38-.01.21-.03.37-.03.53-.01,7.18-.02,14.35-.04,21.53,0,.42.11.66.51.83.56.24,1.09.55,1.62.85.51.29.67.76.44,1.19-.24.44-.72.58-1.24.32-1.59-.82-3.18-1.65-4.76-2.5-.21-.11-.36-.32-.54-.49,0-.19,0-.38,0-.57.69-1.13,1.47-.28,2.26,0,0-.32,0-.54,0-.77,0-6.98,0-13.96.05-20.94,0-.69-.17-1.07-.81-1.34-.57-.25-1.24-.44-1.5-1.13v-.23Z"/>
        <path class="cls-3" d="m25.35,95.36c.26-.21.49-.47.78-.63,1.44-.78,2.9-1.54,4.36-2.29.23-.12.55-.26.74-.18.28.11.63.38.69.63.06.26-.13.67-.35.87-.33.3-.77.46-1.24.72,1.66.87,3.24,1.7,4.82,2.53,4.26,2.23,8.51,4.46,12.76,6.71.39.21.7.26,1.1.01.53-.33,1.1-.61,1.67-.89.49-.24.96-.11,1.2.3.25.43.1.95-.39,1.21-1.6.85-3.2,1.7-4.81,2.53-.48.25-.97.09-1.19-.32-.24-.44-.07-.92.42-1.21.21-.12.42-.23.71-.38-1.76-.93-3.42-1.8-5.09-2.68-4.19-2.2-8.38-4.39-12.56-6.6-.36-.19-.64-.23-.99,0-.33.22-.7.38-1.06.56-.77.4-1.03.34-1.55-.32,0-.19,0-.38,0-.57Z"/>
        <path class="cls-3" d="m65.27,104.05c.33.19.58.34.84.49.84.48,1.12,1.15.76,1.83-.36.66-1.1.81-1.96.36-1.82-.95-3.63-1.91-5.45-2.86-.47-.25-.94-.47-1.39-.74-.62-.37-.83-1.06-.54-1.64.3-.62,1.02-.87,1.7-.54.95.46,1.86.99,2.81,1.44.25.12.66.15.9.03,8.56-4.46,17.1-8.95,25.65-13.43.07-.04.13-.1.27-.21-.55-.29-1.06-.56-1.56-.84-.75-.43-.99-1.08-.66-1.73.34-.65,1.03-.87,1.79-.48,2.32,1.19,4.63,2.4,6.93,3.63.76.4.97,1.09.63,1.74-.35.65-1.02.83-1.79.47-.08-.04-.16-.07-.22-.12-1.59-1.33-3.04-.95-4.77-.01-7.61,4.12-15.3,8.08-22.96,12.11-.29.15-.58.31-.96.52Z"/>
      </g>
    </g>
    <text class="cls-9" transform="translate(10.97 126.43)"><tspan x="0" y="0">Dimensiones</tspan></text>
    <text class="cls-9" transform="translate(15.82 11.9)"><tspan x="0" y="0">NM</tspan><tspan class="cls-7" x="24.75" y="0">X</tspan><tspan class="cls-2" x="33.7" y="0">-</tspan><tspan x="39.16" y="0">C</tspan><tspan class="cls-2" x="49.22" y="0">-</tspan><tspan class="cls-4" x="54.68" y="0">0</tspan><tspan x="63.81" y="0">38-</tspan><tspan x="-6.43" y="16.8">ONN</tspan><tspan class="cls-1" x="28.08" y="16.8">C</tspan><tspan x="37.94" y="16.8">C</tspan><tspan class="cls-8" x="48.01" y="16.8">E</tspan><tspan class="cls-5" x="57.09" y="16.8">-</tspan><tspan class="cls-6" x="62.27" y="16.8">2</tspan><tspan x="70.2" y="16.8">013</tspan></text>
  </g>
</svg>