<?xml version="1.0" encoding="UTF-8"?>
<svg id="Capa_2" data-name="Capa 2" xmlns="http://www.w3.org/2000/svg" viewBox="0 0 102.83 131.87">
  <defs>
    <style>
      .cls-1 {
        letter-spacing: 0em;
      }

      .cls-2 {
        letter-spacing: -.01em;
      }

      .cls-3 {
        letter-spacing: 0em;
      }

      .cls-4 {
        fill: #73b735;
      }

      .cls-5 {
        letter-spacing: 0em;
      }

      .cls-6 {
        letter-spacing: 0em;
      }

      .cls-7 {
        letter-spacing: -.01em;
      }

      .cls-8 {
        letter-spacing: -.02em;
      }

      .cls-9 {
        letter-spacing: -.02em;
      }

      .cls-10 {
        letter-spacing: 0em;
      }

      .cls-11 {
        letter-spacing: -.02em;
      }

      .cls-12 {
        fill: #17253f;
        font-family: MontserratRoman-Regular, Montserrat;
        font-size: 14px;
        font-variation-settings: 'wght' 400;
      }
    </style>
  </defs>
  <g id="Capa_1-2" data-name="Capa 1">
    <g>
      <g>
        <path class="cls-4" d="m30.72,85.46c.2-.17.38-.39.61-.51,7.66-3.94,15.32-7.87,22.98-11.82.42-.22.77-.22,1.19,0,4.27,2.25,8.55,4.49,12.83,6.72.42.22.58.5.58.97-.01,5.12-.01,10.24,0,15.36,0,.48-.17.75-.59.97-7.69,3.94-15.37,7.88-23.05,11.84-.39.2-.72.2-1.12-.01-4.25-2.24-8.51-4.46-12.76-6.7-.24-.13-.45-.33-.67-.49,0-5.44,0-10.89,0-16.33Zm36.91-3.85c-.17.08-.28.13-.39.19-7.19,3.69-14.37,7.38-21.57,11.06-.26.14-.34.29-.34.58,0,4.55,0,9.1,0,13.65v.42c.17-.08.29-.13.41-.19,7.18-3.68,14.35-7.37,21.53-11.05.25-.13.35-.27.35-.57-.01-4.56,0-9.12,0-13.69v-.4Zm-23.57,25.89c0-.15.01-.24.01-.32,0-4.61,0-9.22,0-13.83,0-.29-.13-.38-.34-.49-3.78-1.98-7.56-3.96-11.35-5.94-.12-.06-.24-.11-.39-.19,0,.12-.01.2-.01.28,0,4.62,0,9.25,0,13.87,0,.27.13.36.32.46,3.16,1.65,6.31,3.3,9.47,4.96.75.39,1.49.78,2.29,1.2Zm-11.3-21.85c.13.07.22.13.32.18,3.78,1.98,7.56,3.96,11.34,5.95.23.12.4.1.62,0,7.15-3.68,14.3-7.35,21.46-11.03.11-.05.21-.12.36-.21-.17-.09-.3-.16-.43-.23-3.73-1.95-7.45-3.9-11.18-5.86-.26-.14-.45-.14-.71,0-7.12,3.66-14.24,7.32-21.36,10.98-.13.07-.26.14-.42.23Z"/>
        <path class="cls-4" d="m44.72,81c.16.06.33.11.48.19,2.42,1.35,4.83,2.7,7.24,4.05.26.14.48.32.47.65,0,.34-.22.51-.48.64-2.42,1.24-4.83,2.48-7.25,3.72-.3.16-.58.16-.88,0-2.53-1.33-5.05-2.65-7.58-3.97-.26-.14-.45-.32-.46-.62,0-.31.19-.49.45-.63,2.53-1.3,5.05-2.6,7.58-3.89.13-.07.28-.1.43-.15Zm-.66,1.7c-1.93.99-3.83,1.97-5.79,2.98,1.97,1.03,3.86,2.02,5.79,3.03v-6Zm1.31,6.03c1.88-.97,3.71-1.9,5.58-2.87-1.87-1.05-3.71-2.08-5.58-3.12v5.99Z"/>
        <path class="cls-4" d="m54.95,75.59c.17.07.35.12.51.21,2.4,1.34,4.81,2.69,7.21,4.04.27.15.5.33.49.68-.01.34-.24.49-.51.63-2.39,1.23-4.79,2.46-7.18,3.69-.34.18-.64.18-.98,0-2.49-1.31-4.99-2.62-7.48-3.92-.28-.15-.51-.32-.5-.67,0-.33.23-.49.5-.63,2.49-1.28,4.99-2.56,7.48-3.84.14-.07.3-.12.47-.18Zm-.64,1.7c-1.94,1-3.84,1.98-5.8,2.98,1.96,1.03,3.86,2.02,5.8,3.03v-6.01Zm1.32.06v5.96c1.86-.96,3.68-1.89,5.56-2.85-1.89-1.06-3.7-2.07-5.56-3.11Z"/>
      </g>
      <g>
        <path class="cls-4" d="m43.84,56.26v-7.06h2.37v7.06h7.17v-7.07h2.37v7.13c.35,0,.61,0,.88,0,3.38,0,6.77-.04,10.15.02,4.35.08,7.95,3.68,8.09,8,.08,2.33-1.45,3.92-3.8,3.92-11.04,0-22.08,0-33.13,0-3.08,0-6.17,0-9.25,0-2.64,0-4.21-1.75-3.93-4.37.47-4.34,3.98-7.53,8.37-7.56,3.48-.03,6.96,0,10.44-.01.05,0,.1-.02.25-.05Zm5.93,9.61c7.01,0,14.02,0,21.03,0,1.38,0,1.84-.52,1.66-1.89-.41-3.06-2.88-5.27-5.98-5.27-11.11-.01-22.22-.01-33.34,0-3.1,0-5.56,2.2-5.98,5.27-.19,1.37.27,1.89,1.65,1.89,6.99,0,13.97,0,20.96,0Z"/>
        <path class="cls-4" d="m58.21,61.13h2.3v2.31h-2.3v-2.31Z"/>
        <path class="cls-4" d="m62.99,61.13h2.29v2.31h-2.29v-2.31Z"/>
        <path class="cls-4" d="m67.75,63.45v-2.3h2.32v2.3h-2.32Z"/>
      </g>
    </g>
    <text class="cls-12" transform="translate(8.59 11.9)"><tspan x="0" y="0">NM</tspan><tspan class="cls-8" x="24.75" y="0">X</tspan><tspan class="cls-1" x="33.7" y="0">-</tspan><tspan x="39.16" y="0">C</tspan><tspan class="cls-1" x="49.22" y="0">-</tspan><tspan class="cls-5" x="54.68" y="0">0</tspan><tspan x="63.81" y="0">3</tspan><tspan class="cls-10" x="71.71" y="0">6</tspan><tspan x="80.3" y="0">-</tspan><tspan x="-6.59" y="16.8">ONN</tspan><tspan class="cls-2" x="27.92" y="16.8">C</tspan><tspan x="37.77" y="16.8">C</tspan><tspan class="cls-11" x="47.84" y="16.8">E</tspan><tspan class="cls-7" x="56.92" y="16.8">-</tspan><tspan class="cls-3" x="62.1" y="16.8">2</tspan><tspan x="70.03" y="16.8">013</tspan></text>
    <text class="cls-12" transform="translate(10.54 128.24)"><tspan x="0" y="0">Resis</tspan><tspan class="cls-9" x="36.01" y="0">t</tspan><tspan x="41.43" y="0">en</tspan><tspan class="cls-6" x="59.35" y="0">c</tspan><tspan x="67.12" y="0">ia</tspan></text>
  </g>
</svg>